<svg id="Layer_1" xmlns="http://www.w3.org/2000/svg" width="500" height="500"><style>.room{fill:#010101}</style><path class="room" d="M45.66 272.95l173.63-23.74c3.3-.45 5.76-3.27 5.76-6.6V128.66c0-3.37-2.52-6.21-5.87-6.62L45.55 101.07c-3.97-.48-7.47 2.62-7.47 6.62v158.66c.01 4.04 3.58 7.15 7.58 6.6z"/><path class="room" d="M499 55.19c-.67-.6-1.53-.87-2.47-.87l-246.6 38.06L3.53 54.33c-.87 0-1.8.27-2.47.87-.6.6-1 1.47-1.07 2.4v256.3c0 1.27.73 2.33 1.8 2.93l246.7 128.45c.47.27 1 .4 1.53.4s1.07-.13 1.53-.4l246.7-128.45c1.07-.6 1.73-1.73 1.73-2.93V57.59c.02-.93-.38-1.8-.98-2.4zM9.73 64.18l235.98 37.53v163.66L9.73 306.7V64.18zm240.2 209.19l29.19 5.37c-65.54 16.85-223.65 54.42-225.42 54.83-.06.01-.11.04-.16.06l-34.82-17.67 231.21-42.59zm209.71 27.96l-47.57-8.32.13-117.34 47.44-6.03v131.69zM158 386.65l243.28-85.42 35.06 6.45-238.22 99.33L158 386.65zm-10.16-5.16l-37.12-18.84 242.98-70.18 31.27 5.75-237.13 83.27zm-47.89-24.31l-35.06-17.79c39.16-9.33 190.75-45.53 233.29-57.14l37.38 6.88-235.61 68.05zm150.08 76.18l-42.26-21.45 242.61-101.16c.24-.1.46-.22.67-.36l30.29 5.57-231.31 117.4zM490.34 306.7l-20.4-3.57V167.2c0-2.21-.82-4.34-2.26-5.85-1.71-1.8-4.14-2.64-6.35-2.3l-52.83 6.71c-3.76.51-6.6 4.01-6.6 8.14l-.13 117.32-147.47-25.78V101.78l236.04-37.53V306.7z"/><path d="M214.35 133.81a3.081 3.081 0 00-4.33-.57l-65.1 49.88-87.73-64.34a3.095 3.095 0 00-3.66 4.99l86.28 63.27-88.39 67.73a3.09 3.09 0 001.88 5.54c.66 0 1.32-.21 1.88-.64L145 190.84l63.01 46.21c.55.4 1.19.6 1.83.6.95 0 1.89-.44 2.49-1.26 1.01-1.38.71-3.31-.66-4.32l-61.55-45.14 63.67-48.78a3.12 3.12 0 00.56-4.34z" fill="#fff"/></svg>